<mxfile host="app.diagrams.net" agent="Mozilla/5.0 (Windows NT 10.0; Win64; x64; rv:137.0) Gecko/20100101 Firefox/137.0" version="26.2.13">
  <diagram name="Seite-1" id="kiRcYdykQpiXVtvCCH_o">
    <mxGraphModel dx="1297" dy="737" grid="1" gridSize="10" guides="1" tooltips="1" connect="1" arrows="1" fold="1" page="1" pageScale="1" pageWidth="827" pageHeight="1169" math="0" shadow="0">
      <root>
        <mxCell id="0" />
        <mxCell id="1" parent="0" />
        <mxCell id="iKRK4WftCPjV4v0DSpR1-3" value="" style="edgeStyle=orthogonalEdgeStyle;rounded=0;orthogonalLoop=1;jettySize=auto;html=1;entryX=0;entryY=0.5;entryDx=0;entryDy=0;" parent="1" source="iKRK4WftCPjV4v0DSpR1-1" target="RGeOCi0uQSU0HmTcbR4D-23" edge="1">
          <mxGeometry relative="1" as="geometry">
            <mxPoint x="214" y="65" as="targetPoint" />
          </mxGeometry>
        </mxCell>
        <mxCell id="iKRK4WftCPjV4v0DSpR1-5" value="" style="edgeStyle=orthogonalEdgeStyle;rounded=0;orthogonalLoop=1;jettySize=auto;html=1;" parent="1" source="iKRK4WftCPjV4v0DSpR1-1" target="iKRK4WftCPjV4v0DSpR1-4" edge="1">
          <mxGeometry relative="1" as="geometry">
            <Array as="points">
              <mxPoint x="90" y="490" />
            </Array>
          </mxGeometry>
        </mxCell>
        <object label="Hydraulkdatenkollektiv" gumo="" id="iKRK4WftCPjV4v0DSpR1-1">
          <mxCell style="rounded=0;whiteSpace=wrap;html=1;fontFamily=Latin Modern;" parent="1" vertex="1">
            <mxGeometry x="20" y="40" width="140" height="50" as="geometry" />
          </mxCell>
        </object>
        <mxCell id="iKRK4WftCPjV4v0DSpR1-4" value="" style="rounded=0;whiteSpace=wrap;html=1;" parent="1" vertex="1">
          <mxGeometry x="334" y="460" width="96" height="40" as="geometry" />
        </mxCell>
        <mxCell id="RGeOCi0uQSU0HmTcbR4D-11" value="" style="edgeStyle=orthogonalEdgeStyle;rounded=0;orthogonalLoop=1;jettySize=auto;html=1;" edge="1" parent="1" source="RGeOCi0uQSU0HmTcbR4D-2" target="RGeOCi0uQSU0HmTcbR4D-10">
          <mxGeometry relative="1" as="geometry" />
        </mxCell>
        <UserObject label="&lt;div&gt;Verfahrens-vorgaben&lt;/div&gt;&lt;div&gt;0..∞&lt;/div&gt;" link="https://www.bfr-abwasser.de/html/ISYBAU_Austauschformate_Abwasser.14.17.html" linkTarget="_blank" id="RGeOCi0uQSU0HmTcbR4D-2">
          <mxCell style="rounded=0;whiteSpace=wrap;html=1;fontFamily=Latin Modern;" vertex="1" parent="1">
            <mxGeometry x="200" y="147.5" width="80" height="45" as="geometry" />
          </mxCell>
        </UserObject>
        <mxCell id="RGeOCi0uQSU0HmTcbR4D-3" value="" style="endArrow=classic;html=1;rounded=0;entryX=0;entryY=0.5;entryDx=0;entryDy=0;" edge="1" parent="1" target="RGeOCi0uQSU0HmTcbR4D-2">
          <mxGeometry width="50" height="50" relative="1" as="geometry">
            <mxPoint x="90" y="170" as="sourcePoint" />
            <mxPoint x="370" y="210" as="targetPoint" />
          </mxGeometry>
        </mxCell>
        <mxCell id="RGeOCi0uQSU0HmTcbR4D-6" value="" style="endArrow=classic;html=1;rounded=0;" edge="1" parent="1">
          <mxGeometry width="50" height="50" relative="1" as="geometry">
            <mxPoint x="90" y="370" as="sourcePoint" />
            <mxPoint x="110" y="370" as="targetPoint" />
          </mxGeometry>
        </mxCell>
        <mxCell id="RGeOCi0uQSU0HmTcbR4D-8" value="" style="endArrow=classic;html=1;rounded=0;entryX=0;entryY=0.5;entryDx=0;entryDy=0;" edge="1" target="RGeOCi0uQSU0HmTcbR4D-24" parent="1">
          <mxGeometry width="50" height="50" relative="1" as="geometry">
            <mxPoint x="90" y="284.71" as="sourcePoint" />
            <mxPoint x="130" y="284.71" as="targetPoint" />
          </mxGeometry>
        </mxCell>
        <mxCell id="RGeOCi0uQSU0HmTcbR4D-16" value="" style="edgeStyle=orthogonalEdgeStyle;rounded=0;orthogonalLoop=1;jettySize=auto;html=1;" edge="1" parent="1" source="RGeOCi0uQSU0HmTcbR4D-10" target="RGeOCi0uQSU0HmTcbR4D-15">
          <mxGeometry relative="1" as="geometry" />
        </mxCell>
        <UserObject label="&lt;div&gt;Zielgrößen&lt;/div&gt;&lt;div&gt;0..∞&lt;/div&gt;" link="https://www.bfr-abwasser.de/html/ISYBAU_Austauschformate_Abwasser.14.17.html" linkTarget="_blank" id="RGeOCi0uQSU0HmTcbR4D-10">
          <mxCell style="rounded=0;whiteSpace=wrap;html=1;fontFamily=Latin Modern;" vertex="1" parent="1">
            <mxGeometry x="320" y="148.75" width="80" height="42.5" as="geometry" />
          </mxCell>
        </UserObject>
        <UserObject label="&lt;div&gt;&lt;font style=&quot;font-size: 12px;&quot;&gt;Verfahrens-&lt;/font&gt;&lt;/div&gt;&lt;div&gt;&lt;font style=&quot;font-size: 12px;&quot;&gt;kennung&lt;/font&gt;&lt;/div&gt;" linkTarget="_blank" id="RGeOCi0uQSU0HmTcbR4D-15">
          <mxCell style="rounded=0;whiteSpace=wrap;html=1;fontFamily=Latin Modern;fontSize=11;fillColor=#f5f5f5;fontColor=#333333;strokeColor=#666666;" vertex="1" parent="1">
            <mxGeometry x="440" y="148.75" width="80" height="42.5" as="geometry" />
          </mxCell>
        </UserObject>
        <UserObject label="&lt;div&gt;Kennung&lt;/div&gt;" link="https://www.bfr-abwasser.de/html/ISYBAU_Austauschformate_Abwasser.14.17.html" linkTarget="_blank" id="RGeOCi0uQSU0HmTcbR4D-23">
          <mxCell style="rounded=0;whiteSpace=wrap;html=1;fontFamily=Latin Modern;fillColor=#f5f5f5;fontColor=#333333;strokeColor=#666666;" vertex="1" parent="1">
            <mxGeometry x="200" y="42.5" width="80" height="45" as="geometry" />
          </mxCell>
        </UserObject>
        <mxCell id="RGeOCi0uQSU0HmTcbR4D-26" value="" style="edgeStyle=orthogonalEdgeStyle;rounded=0;orthogonalLoop=1;jettySize=auto;html=1;" edge="1" parent="1" source="RGeOCi0uQSU0HmTcbR4D-24" target="RGeOCi0uQSU0HmTcbR4D-25">
          <mxGeometry relative="1" as="geometry" />
        </mxCell>
        <UserObject label="&lt;div&gt;Rechennetz&lt;/div&gt;" link="https://www.bfr-abwasser.de/html/ISYBAU_Austauschformate_Abwasser.14.18.html" linkTarget="_blank" id="RGeOCi0uQSU0HmTcbR4D-24">
          <mxCell style="rounded=0;whiteSpace=wrap;html=1;fontFamily=Latin Modern;" vertex="1" parent="1">
            <mxGeometry x="190" y="262.5" width="80" height="45" as="geometry" />
          </mxCell>
        </UserObject>
        <mxCell id="RGeOCi0uQSU0HmTcbR4D-34" value="" style="edgeStyle=orthogonalEdgeStyle;rounded=0;orthogonalLoop=1;jettySize=auto;html=1;" edge="1" parent="1" source="RGeOCi0uQSU0HmTcbR4D-25" target="RGeOCi0uQSU0HmTcbR4D-33">
          <mxGeometry relative="1" as="geometry" />
        </mxCell>
        <UserObject label="&lt;div&gt;Referenz &lt;br&gt;&lt;/div&gt;&lt;div&gt;Stammdaten-&lt;/div&gt;&lt;div&gt;kennung&lt;/div&gt;" linkTarget="_blank" id="RGeOCi0uQSU0HmTcbR4D-25">
          <mxCell style="rounded=0;whiteSpace=wrap;html=1;fontFamily=Latin Modern;" vertex="1" parent="1">
            <mxGeometry x="320" y="260" width="80" height="50" as="geometry" />
          </mxCell>
        </UserObject>
        <UserObject label="&lt;div&gt;Hydraulik-&lt;/div&gt;&lt;div&gt;objekt&lt;/div&gt;" linkTarget="_blank" id="RGeOCi0uQSU0HmTcbR4D-27">
          <mxCell style="rounded=0;whiteSpace=wrap;html=1;fontFamily=Latin Modern;" vertex="1" parent="1">
            <mxGeometry x="320" y="320" width="80" height="40" as="geometry" />
          </mxCell>
        </UserObject>
        <UserObject label="&lt;div&gt;Rechnnetz-&lt;/div&gt;&lt;div&gt;kennung&lt;/div&gt;" linkTarget="_blank" id="RGeOCi0uQSU0HmTcbR4D-30">
          <mxCell style="rounded=0;whiteSpace=wrap;html=1;fontFamily=Latin Modern;fillColor=#f5f5f5;fontColor=#333333;strokeColor=#666666;" vertex="1" parent="1">
            <mxGeometry x="320" y="210" width="80" height="40" as="geometry" />
          </mxCell>
        </UserObject>
        <mxCell id="RGeOCi0uQSU0HmTcbR4D-31" value="" style="endArrow=classic;html=1;rounded=0;entryX=0;entryY=0.5;entryDx=0;entryDy=0;" edge="1" parent="1" target="RGeOCi0uQSU0HmTcbR4D-30">
          <mxGeometry width="50" height="50" relative="1" as="geometry">
            <mxPoint x="270" y="284.8" as="sourcePoint" />
            <mxPoint x="310" y="284.8" as="targetPoint" />
            <Array as="points">
              <mxPoint x="290" y="285" />
              <mxPoint x="290" y="230" />
            </Array>
          </mxGeometry>
        </mxCell>
        <mxCell id="RGeOCi0uQSU0HmTcbR4D-32" value="" style="endArrow=classic;html=1;rounded=0;exitX=1;exitY=0.5;exitDx=0;exitDy=0;entryX=0;entryY=0.5;entryDx=0;entryDy=0;" edge="1" parent="1" source="RGeOCi0uQSU0HmTcbR4D-24" target="RGeOCi0uQSU0HmTcbR4D-27">
          <mxGeometry width="50" height="50" relative="1" as="geometry">
            <mxPoint x="100" y="270" as="sourcePoint" />
            <mxPoint x="140" y="270" as="targetPoint" />
            <Array as="points">
              <mxPoint x="290" y="285" />
              <mxPoint x="290" y="340" />
            </Array>
          </mxGeometry>
        </mxCell>
        <mxCell id="RGeOCi0uQSU0HmTcbR4D-36" value="" style="edgeStyle=orthogonalEdgeStyle;rounded=0;orthogonalLoop=1;jettySize=auto;html=1;strokeColor=default;" edge="1" parent="1" source="RGeOCi0uQSU0HmTcbR4D-33">
          <mxGeometry relative="1" as="geometry">
            <mxPoint x="580" y="285" as="targetPoint" />
          </mxGeometry>
        </mxCell>
        <mxCell id="RGeOCi0uQSU0HmTcbR4D-33" value="Objektart" style="shape=rhombus;html=1;dashed=0;whiteSpace=wrap;perimeter=rhombusPerimeter;fontFamily=Latin Modern;" vertex="1" parent="1">
          <mxGeometry x="440" y="260" width="80" height="50" as="geometry" />
        </mxCell>
        <UserObject label="&lt;div&gt;Hydraulik-&lt;/div&gt;&lt;div&gt;objekt&lt;/div&gt;" linkTarget="_blank" id="RGeOCi0uQSU0HmTcbR4D-37">
          <mxCell style="rounded=0;whiteSpace=wrap;html=1;fontFamily=Latin Modern;" vertex="1" parent="1">
            <mxGeometry x="600" y="265" width="80" height="40" as="geometry" />
          </mxCell>
        </UserObject>
      </root>
    </mxGraphModel>
  </diagram>
</mxfile>
